<?xml version="1.0" encoding="utf-8" standalone="no"?>
<!DOCTYPE svg PUBLIC "-//W3C//DTD SVG 1.1//EN"
  "http://www.w3.org/Graphics/SVG/1.1/DTD/svg11.dtd">
<svg xmlns:xlink="http://www.w3.org/1999/xlink" width="728.39952pt" height="296.39952pt" viewBox="0 0 728.39952 296.39952" xmlns="http://www.w3.org/2000/svg" version="1.1">
 <metadata>
  <rdf:RDF xmlns:dc="http://purl.org/dc/elements/1.1/" xmlns:cc="http://creativecommons.org/ns#" xmlns:rdf="http://www.w3.org/1999/02/22-rdf-syntax-ns#">
   <cc:Work>
    <dc:type rdf:resource="http://purl.org/dc/dcmitype/StillImage"/>
    <dc:date>2026-09-29T19:58:19.193355</dc:date>
    <dc:format>image/svg+xml</dc:format>
    <dc:creator>
     <cc:Agent>
      <dc:title>Matplotlib v3.11.2, https://matplotlib.org/</dc:title>
     </cc:Agent>
    </dc:creator>
   </cc:Work>
  </rdf:RDF>
 </metadata>
 <defs>
  <style type="text/css">*{stroke-linejoin: round; stroke-linecap: butt}</style>
 </defs>
 <g id="figure_1">
  <g id="patch_1">
   <path d="M 0 296.39952 
L 728.39952 296.39952 
L 728.39952 0 
L 0 0 
z
" style="fill: #ffffff"/>
  </g>
  <g id="axes_1">
   <g id="patch_2">
    <path d="M 44.103906 258.198739 
L 352.648197 258.198739 
L 352.648197 22.318125 
L 44.103906 22.318125 
z
" style="fill: #ffffff"/>
   </g>
   <g id="matplotlib.axis_1">
    <g id="xtick_1">
     <g id="line2d_1">
      <defs>
       <path id="mcbe6251ecf" d="M 0 0 
L 0 3.5 
" style="stroke: #000000; stroke-width: 0.8"/>
      </defs>
      <g>
       <use xlink:href="#mcbe6251ecf" x="44.103906" y="258.198739" style="stroke: #000000; stroke-width: 0.8"/>
      </g>
     </g>
     <g id="text_1">
      <!-- 0.0 -->
      <g transform="translate(36.152344 272.796395) scale(0.1 -0.1)">
       <defs>
        <path id="DejaVuSans-13" d="M 2034 4250 
Q 1547 4250 1301 3770 
Q 1056 3291 1056 2328 
Q 1056 1369 1301 889 
Q 1547 409 2034 409 
Q 2525 409 2770 889 
Q 3016 1369 3016 2328 
Q 3016 3291 2770 3770 
Q 2525 4250 2034 4250 
z
M 2034 4750 
Q 2819 4750 3233 4129 
Q 3647 3509 3647 2328 
Q 3647 1150 3233 529 
Q 2819 -91 2034 -91 
Q 1250 -91 836 529 
Q 422 1150 422 2328 
Q 422 3509 836 4129 
Q 1250 4750 2034 4750 
z
" transform="scale(0.015625)"/>
        <path id="DejaVuSans-11" d="M 684 794 
L 1344 794 
L 1344 0 
L 684 0 
L 684 794 
z
" transform="scale(0.015625)"/>
       </defs>
       <use xlink:href="#DejaVuSans-13"/>
       <use xlink:href="#DejaVuSans-11" transform="translate(63.625 0)"/>
       <use xlink:href="#DejaVuSans-13" transform="translate(95.40625 0)"/>
      </g>
     </g>
    </g>
    <g id="xtick_2">
     <g id="line2d_2">
      <g>
       <use xlink:href="#mcbe6251ecf" x="105.812765" y="258.198739" style="stroke: #000000; stroke-width: 0.8"/>
      </g>
     </g>
     <g id="text_2">
      <!-- 0.2 -->
      <g transform="translate(97.861202 272.796395) scale(0.1 -0.1)">
       <defs>
        <path id="DejaVuSans-15" d="M 1228 531 
L 3431 531 
L 3431 0 
L 469 0 
L 469 531 
Q 828 903 1448 1529 
Q 2069 2156 2228 2338 
Q 2531 2678 2651 2914 
Q 2772 3150 2772 3378 
Q 2772 3750 2511 3984 
Q 2250 4219 1831 4219 
Q 1534 4219 1204 4116 
Q 875 4013 500 3803 
L 500 4441 
Q 881 4594 1212 4672 
Q 1544 4750 1819 4750 
Q 2544 4750 2975 4387 
Q 3406 4025 3406 3419 
Q 3406 3131 3298 2873 
Q 3191 2616 2906 2266 
Q 2828 2175 2409 1742 
Q 1991 1309 1228 531 
z
" transform="scale(0.015625)"/>
       </defs>
       <use xlink:href="#DejaVuSans-13"/>
       <use xlink:href="#DejaVuSans-11" transform="translate(63.625 0)"/>
       <use xlink:href="#DejaVuSans-15" transform="translate(95.40625 0)"/>
      </g>
     </g>
    </g>
    <g id="xtick_3">
     <g id="line2d_3">
      <g>
       <use xlink:href="#mcbe6251ecf" x="167.521623" y="258.198739" style="stroke: #000000; stroke-width: 0.8"/>
      </g>
     </g>
     <g id="text_3">
      <!-- 0.4 -->
      <g transform="translate(159.57006 272.796395) scale(0.1 -0.1)">
       <defs>
        <path id="DejaVuSans-17" d="M 2419 4116 
L 825 1625 
L 2419 1625 
L 2419 4116 
z
M 2253 4666 
L 3047 4666 
L 3047 1625 
L 3713 1625 
L 3713 1100 
L 3047 1100 
L 3047 0 
L 2419 0 
L 2419 1100 
L 313 1100 
L 313 1709 
L 2253 4666 
z
" transform="scale(0.015625)"/>
       </defs>
       <use xlink:href="#DejaVuSans-13"/>
       <use xlink:href="#DejaVuSans-11" transform="translate(63.625 0)"/>
       <use xlink:href="#DejaVuSans-17" transform="translate(95.40625 0)"/>
      </g>
     </g>
    </g>
    <g id="xtick_4">
     <g id="line2d_4">
      <g>
       <use xlink:href="#mcbe6251ecf" x="229.230481" y="258.198739" style="stroke: #000000; stroke-width: 0.8"/>
      </g>
     </g>
     <g id="text_4">
      <!-- 0.6 -->
      <g transform="translate(221.278919 272.796395) scale(0.1 -0.1)">
       <defs>
        <path id="DejaVuSans-19" d="M 2113 2584 
Q 1688 2584 1439 2293 
Q 1191 2003 1191 1497 
Q 1191 994 1439 701 
Q 1688 409 2113 409 
Q 2538 409 2786 701 
Q 3034 994 3034 1497 
Q 3034 2003 2786 2293 
Q 2538 2584 2113 2584 
z
M 3366 4563 
L 3366 3988 
Q 3128 4100 2886 4159 
Q 2644 4219 2406 4219 
Q 1781 4219 1451 3797 
Q 1122 3375 1075 2522 
Q 1259 2794 1537 2939 
Q 1816 3084 2150 3084 
Q 2853 3084 3261 2657 
Q 3669 2231 3669 1497 
Q 3669 778 3244 343 
Q 2819 -91 2113 -91 
Q 1303 -91 875 529 
Q 447 1150 447 2328 
Q 447 3434 972 4092 
Q 1497 4750 2381 4750 
Q 2619 4750 2861 4703 
Q 3103 4656 3366 4563 
z
" transform="scale(0.015625)"/>
       </defs>
       <use xlink:href="#DejaVuSans-13"/>
       <use xlink:href="#DejaVuSans-11" transform="translate(63.625 0)"/>
       <use xlink:href="#DejaVuSans-19" transform="translate(95.40625 0)"/>
      </g>
     </g>
    </g>
    <g id="xtick_5">
     <g id="line2d_5">
      <g>
       <use xlink:href="#mcbe6251ecf" x="290.939339" y="258.198739" style="stroke: #000000; stroke-width: 0.8"/>
      </g>
     </g>
     <g id="text_5">
      <!-- 0.8 -->
      <g transform="translate(282.987777 272.796395) scale(0.1 -0.1)">
       <defs>
        <path id="DejaVuSans-1b" d="M 2034 2216 
Q 1584 2216 1326 1975 
Q 1069 1734 1069 1313 
Q 1069 891 1326 650 
Q 1584 409 2034 409 
Q 2484 409 2743 651 
Q 3003 894 3003 1313 
Q 3003 1734 2745 1975 
Q 2488 2216 2034 2216 
z
M 1403 2484 
Q 997 2584 770 2862 
Q 544 3141 544 3541 
Q 544 4100 942 4425 
Q 1341 4750 2034 4750 
Q 2731 4750 3128 4425 
Q 3525 4100 3525 3541 
Q 3525 3141 3298 2862 
Q 3072 2584 2669 2484 
Q 3125 2378 3379 2068 
Q 3634 1759 3634 1313 
Q 3634 634 3220 271 
Q 2806 -91 2034 -91 
Q 1263 -91 848 271 
Q 434 634 434 1313 
Q 434 1759 690 2068 
Q 947 2378 1403 2484 
z
M 1172 3481 
Q 1172 3119 1398 2916 
Q 1625 2713 2034 2713 
Q 2441 2713 2670 2916 
Q 2900 3119 2900 3481 
Q 2900 3844 2670 4047 
Q 2441 4250 2034 4250 
Q 1625 4250 1398 4047 
Q 1172 3844 1172 3481 
z
" transform="scale(0.015625)"/>
       </defs>
       <use xlink:href="#DejaVuSans-13"/>
       <use xlink:href="#DejaVuSans-11" transform="translate(63.625 0)"/>
       <use xlink:href="#DejaVuSans-1b" transform="translate(95.40625 0)"/>
      </g>
     </g>
    </g>
    <g id="xtick_6">
     <g id="line2d_6">
      <g>
       <use xlink:href="#mcbe6251ecf" x="352.648197" y="258.198739" style="stroke: #000000; stroke-width: 0.8"/>
      </g>
     </g>
     <g id="text_6">
      <!-- 1.0 -->
      <g transform="translate(344.696635 272.796395) scale(0.1 -0.1)">
       <defs>
        <path id="DejaVuSans-14" d="M 794 531 
L 1825 531 
L 1825 4091 
L 703 3866 
L 703 4441 
L 1819 4666 
L 2450 4666 
L 2450 531 
L 3481 531 
L 3481 0 
L 794 0 
L 794 531 
z
" transform="scale(0.015625)"/>
       </defs>
       <use xlink:href="#DejaVuSans-14"/>
       <use xlink:href="#DejaVuSans-11" transform="translate(63.625 0)"/>
       <use xlink:href="#DejaVuSans-13" transform="translate(95.40625 0)"/>
      </g>
     </g>
    </g>
    <g id="text_7">
     <!-- Recall -->
     <g transform="translate(183.458083 286.797176) scale(0.1 -0.1)">
      <defs>
       <path id="DejaVuSans-35" d="M 2841 2188 
Q 3044 2119 3236 1894 
Q 3428 1669 3622 1275 
L 4263 0 
L 3584 0 
L 2988 1197 
Q 2756 1666 2539 1819 
Q 2322 1972 1947 1972 
L 1259 1972 
L 1259 0 
L 628 0 
L 628 4666 
L 2053 4666 
Q 2853 4666 3247 4331 
Q 3641 3997 3641 3322 
Q 3641 2881 3436 2590 
Q 3231 2300 2841 2188 
z
M 1259 4147 
L 1259 2491 
L 2053 2491 
Q 2509 2491 2742 2702 
Q 2975 2913 2975 3322 
Q 2975 3731 2742 3939 
Q 2509 4147 2053 4147 
L 1259 4147 
z
" transform="scale(0.015625)"/>
       <path id="DejaVuSans-48" d="M 3597 1894 
L 3597 1613 
L 953 1613 
Q 991 1019 1311 708 
Q 1631 397 2203 397 
Q 2534 397 2845 478 
Q 3156 559 3463 722 
L 3463 178 
Q 3153 47 2828 -22 
Q 2503 -91 2169 -91 
Q 1331 -91 842 396 
Q 353 884 353 1716 
Q 353 2575 817 3079 
Q 1281 3584 2069 3584 
Q 2775 3584 3186 3129 
Q 3597 2675 3597 1894 
z
M 3022 2063 
Q 3016 2534 2758 2815 
Q 2500 3097 2075 3097 
Q 1594 3097 1305 2825 
Q 1016 2553 972 2059 
L 3022 2063 
z
" transform="scale(0.015625)"/>
       <path id="DejaVuSans-46" d="M 3122 3366 
L 3122 2828 
Q 2878 2963 2633 3030 
Q 2388 3097 2138 3097 
Q 1578 3097 1268 2742 
Q 959 2388 959 1747 
Q 959 1106 1268 751 
Q 1578 397 2138 397 
Q 2388 397 2633 464 
Q 2878 531 3122 666 
L 3122 134 
Q 2881 22 2623 -34 
Q 2366 -91 2075 -91 
Q 1284 -91 818 406 
Q 353 903 353 1747 
Q 353 2603 823 3093 
Q 1294 3584 2113 3584 
Q 2378 3584 2631 3529 
Q 2884 3475 3122 3366 
z
" transform="scale(0.015625)"/>
       <path id="DejaVuSans-44" d="M 2194 1759 
Q 1497 1759 1228 1600 
Q 959 1441 959 1056 
Q 959 750 1161 570 
Q 1363 391 1709 391 
Q 2188 391 2477 730 
Q 2766 1069 2766 1631 
L 2766 1759 
L 2194 1759 
z
M 3341 1997 
L 3341 0 
L 2766 0 
L 2766 531 
Q 2569 213 2275 61 
Q 1981 -91 1556 -91 
Q 1019 -91 701 211 
Q 384 513 384 1019 
Q 384 1609 779 1909 
Q 1175 2209 1959 2209 
L 2766 2209 
L 2766 2266 
Q 2766 2663 2505 2880 
Q 2244 3097 1772 3097 
Q 1472 3097 1187 3025 
Q 903 2953 641 2809 
L 641 3341 
Q 956 3463 1253 3523 
Q 1550 3584 1831 3584 
Q 2591 3584 2966 3190 
Q 3341 2797 3341 1997 
z
" transform="scale(0.015625)"/>
       <path id="DejaVuSans-4f" d="M 603 4863 
L 1178 4863 
L 1178 0 
L 603 0 
L 603 4863 
z
" transform="scale(0.015625)"/>
      </defs>
      <use xlink:href="#DejaVuSans-35"/>
      <use xlink:href="#DejaVuSans-48" transform="translate(65 0)"/>
      <use xlink:href="#DejaVuSans-46" transform="translate(126.53125 0)"/>
      <use xlink:href="#DejaVuSans-44" transform="translate(181.515625 0)"/>
      <use xlink:href="#DejaVuSans-4f" transform="translate(242.796875 0)"/>
      <use xlink:href="#DejaVuSans-4f" transform="translate(270.578125 0)"/>
     </g>
    </g>
   </g>
   <g id="matplotlib.axis_2">
    <g id="ytick_1">
     <g id="line2d_7">
      <defs>
       <path id="mdcc7a6cec2" d="M 0 0 
L -3.5 0 
" style="stroke: #000000; stroke-width: 0.8"/>
      </defs>
      <g>
       <use xlink:href="#mdcc7a6cec2" x="44.103906" y="258.198739" style="stroke: #000000; stroke-width: 0.8"/>
      </g>
     </g>
     <g id="text_8">
      <!-- 0.0 -->
      <g transform="translate(21.200781 261.997567) scale(0.1 -0.1)">
       <use xlink:href="#DejaVuSans-13"/>
       <use xlink:href="#DejaVuSans-11" transform="translate(63.625 0)"/>
       <use xlink:href="#DejaVuSans-13" transform="translate(95.40625 0)"/>
      </g>
     </g>
    </g>
    <g id="ytick_2">
     <g id="line2d_8">
      <g>
       <use xlink:href="#mdcc7a6cec2" x="44.103906" y="211.947638" style="stroke: #000000; stroke-width: 0.8"/>
      </g>
     </g>
     <g id="text_9">
      <!-- 0.2 -->
      <g transform="translate(21.200781 215.746466) scale(0.1 -0.1)">
       <use xlink:href="#DejaVuSans-13"/>
       <use xlink:href="#DejaVuSans-11" transform="translate(63.625 0)"/>
       <use xlink:href="#DejaVuSans-15" transform="translate(95.40625 0)"/>
      </g>
     </g>
    </g>
    <g id="ytick_3">
     <g id="line2d_9">
      <g>
       <use xlink:href="#mdcc7a6cec2" x="44.103906" y="165.696537" style="stroke: #000000; stroke-width: 0.8"/>
      </g>
     </g>
     <g id="text_10">
      <!-- 0.4 -->
      <g transform="translate(21.200781 169.495365) scale(0.1 -0.1)">
       <use xlink:href="#DejaVuSans-13"/>
       <use xlink:href="#DejaVuSans-11" transform="translate(63.625 0)"/>
       <use xlink:href="#DejaVuSans-17" transform="translate(95.40625 0)"/>
      </g>
     </g>
    </g>
    <g id="ytick_4">
     <g id="line2d_10">
      <g>
       <use xlink:href="#mdcc7a6cec2" x="44.103906" y="119.445437" style="stroke: #000000; stroke-width: 0.8"/>
      </g>
     </g>
     <g id="text_11">
      <!-- 0.6 -->
      <g transform="translate(21.200781 123.244265) scale(0.1 -0.1)">
       <use xlink:href="#DejaVuSans-13"/>
       <use xlink:href="#DejaVuSans-11" transform="translate(63.625 0)"/>
       <use xlink:href="#DejaVuSans-19" transform="translate(95.40625 0)"/>
      </g>
     </g>
    </g>
    <g id="ytick_5">
     <g id="line2d_11">
      <g>
       <use xlink:href="#mdcc7a6cec2" x="44.103906" y="73.194336" style="stroke: #000000; stroke-width: 0.8"/>
      </g>
     </g>
     <g id="text_12">
      <!-- 0.8 -->
      <g transform="translate(21.200781 76.993164) scale(0.1 -0.1)">
       <use xlink:href="#DejaVuSans-13"/>
       <use xlink:href="#DejaVuSans-11" transform="translate(63.625 0)"/>
       <use xlink:href="#DejaVuSans-1b" transform="translate(95.40625 0)"/>
      </g>
     </g>
    </g>
    <g id="ytick_6">
     <g id="line2d_12">
      <g>
       <use xlink:href="#mdcc7a6cec2" x="44.103906" y="26.943235" style="stroke: #000000; stroke-width: 0.8"/>
      </g>
     </g>
     <g id="text_13">
      <!-- 1.0 -->
      <g transform="translate(21.200781 30.742063) scale(0.1 -0.1)">
       <use xlink:href="#DejaVuSans-14"/>
       <use xlink:href="#DejaVuSans-11" transform="translate(63.625 0)"/>
       <use xlink:href="#DejaVuSans-13" transform="translate(95.40625 0)"/>
      </g>
     </g>
    </g>
    <g id="text_14">
     <!-- Macro interpolated precision -->
     <g transform="translate(14.798438 211.672494) rotate(-90) scale(0.1 -0.1)">
      <defs>
       <path id="DejaVuSans-30" d="M 628 4666 
L 1569 4666 
L 2759 1491 
L 3956 4666 
L 4897 4666 
L 4897 0 
L 4281 0 
L 4281 4097 
L 3078 897 
L 2444 897 
L 1241 4097 
L 1241 0 
L 628 0 
L 628 4666 
z
" transform="scale(0.015625)"/>
       <path id="DejaVuSans-55" d="M 2631 2963 
Q 2534 3019 2420 3045 
Q 2306 3072 2169 3072 
Q 1681 3072 1420 2755 
Q 1159 2438 1159 1844 
L 1159 0 
L 581 0 
L 581 3500 
L 1159 3500 
L 1159 2956 
Q 1341 3275 1631 3429 
Q 1922 3584 2338 3584 
Q 2397 3584 2469 3576 
Q 2541 3569 2628 3553 
L 2631 2963 
z
" transform="scale(0.015625)"/>
       <path id="DejaVuSans-52" d="M 1959 3097 
Q 1497 3097 1228 2736 
Q 959 2375 959 1747 
Q 959 1119 1226 758 
Q 1494 397 1959 397 
Q 2419 397 2687 759 
Q 2956 1122 2956 1747 
Q 2956 2369 2687 2733 
Q 2419 3097 1959 3097 
z
M 1959 3584 
Q 2709 3584 3137 3096 
Q 3566 2609 3566 1747 
Q 3566 888 3137 398 
Q 2709 -91 1959 -91 
Q 1206 -91 779 398 
Q 353 888 353 1747 
Q 353 2609 779 3096 
Q 1206 3584 1959 3584 
z
" transform="scale(0.015625)"/>
       <path id="DejaVuSans-3" transform="scale(0.015625)"/>
       <path id="DejaVuSans-4c" d="M 603 3500 
L 1178 3500 
L 1178 0 
L 603 0 
L 603 3500 
z
M 603 4863 
L 1178 4863 
L 1178 4134 
L 603 4134 
L 603 4863 
z
" transform="scale(0.015625)"/>
       <path id="DejaVuSans-51" d="M 3513 2113 
L 3513 0 
L 2938 0 
L 2938 2094 
Q 2938 2591 2744 2837 
Q 2550 3084 2163 3084 
Q 1697 3084 1428 2787 
Q 1159 2491 1159 1978 
L 1159 0 
L 581 0 
L 581 3500 
L 1159 3500 
L 1159 2956 
Q 1366 3272 1645 3428 
Q 1925 3584 2291 3584 
Q 2894 3584 3203 3211 
Q 3513 2838 3513 2113 
z
" transform="scale(0.015625)"/>
       <path id="DejaVuSans-57" d="M 1172 4494 
L 1172 3500 
L 2356 3500 
L 2356 3053 
L 1172 3053 
L 1172 1153 
Q 1172 725 1289 603 
Q 1406 481 1766 481 
L 2356 481 
L 2356 0 
L 1766 0 
Q 1100 0 847 248 
Q 594 497 594 1153 
L 594 3053 
L 172 3053 
L 172 3500 
L 594 3500 
L 594 4494 
L 1172 4494 
z
" transform="scale(0.015625)"/>
       <path id="DejaVuSans-53" d="M 1159 525 
L 1159 -1331 
L 581 -1331 
L 581 3500 
L 1159 3500 
L 1159 2969 
Q 1341 3281 1617 3432 
Q 1894 3584 2278 3584 
Q 2916 3584 3314 3078 
Q 3713 2572 3713 1747 
Q 3713 922 3314 415 
Q 2916 -91 2278 -91 
Q 1894 -91 1617 61 
Q 1341 213 1159 525 
z
M 3116 1747 
Q 3116 2381 2855 2742 
Q 2594 3103 2138 3103 
Q 1681 3103 1420 2742 
Q 1159 2381 1159 1747 
Q 1159 1113 1420 752 
Q 1681 391 2138 391 
Q 2594 391 2855 752 
Q 3116 1113 3116 1747 
z
" transform="scale(0.015625)"/>
       <path id="DejaVuSans-47" d="M 2906 2969 
L 2906 4863 
L 3481 4863 
L 3481 0 
L 2906 0 
L 2906 525 
Q 2725 213 2448 61 
Q 2172 -91 1784 -91 
Q 1150 -91 751 415 
Q 353 922 353 1747 
Q 353 2572 751 3078 
Q 1150 3584 1784 3584 
Q 2172 3584 2448 3432 
Q 2725 3281 2906 2969 
z
M 947 1747 
Q 947 1113 1208 752 
Q 1469 391 1925 391 
Q 2381 391 2643 752 
Q 2906 1113 2906 1747 
Q 2906 2381 2643 2742 
Q 2381 3103 1925 3103 
Q 1469 3103 1208 2742 
Q 947 2381 947 1747 
z
" transform="scale(0.015625)"/>
       <path id="DejaVuSans-56" d="M 2834 3397 
L 2834 2853 
Q 2591 2978 2328 3040 
Q 2066 3103 1784 3103 
Q 1356 3103 1142 2972 
Q 928 2841 928 2578 
Q 928 2378 1081 2264 
Q 1234 2150 1697 2047 
L 1894 2003 
Q 2506 1872 2764 1633 
Q 3022 1394 3022 966 
Q 3022 478 2636 193 
Q 2250 -91 1575 -91 
Q 1294 -91 989 -36 
Q 684 19 347 128 
L 347 722 
Q 666 556 975 473 
Q 1284 391 1588 391 
Q 1994 391 2212 530 
Q 2431 669 2431 922 
Q 2431 1156 2273 1281 
Q 2116 1406 1581 1522 
L 1381 1569 
Q 847 1681 609 1914 
Q 372 2147 372 2553 
Q 372 3047 722 3315 
Q 1072 3584 1716 3584 
Q 2034 3584 2315 3537 
Q 2597 3491 2834 3397 
z
" transform="scale(0.015625)"/>
      </defs>
      <use xlink:href="#DejaVuSans-30"/>
      <use xlink:href="#DejaVuSans-44" transform="translate(86.28125 0)"/>
      <use xlink:href="#DejaVuSans-46" transform="translate(147.5625 0)"/>
      <use xlink:href="#DejaVuSans-55" transform="translate(202.546875 0)"/>
      <use xlink:href="#DejaVuSans-52" transform="translate(241.453125 0)"/>
      <use xlink:href="#DejaVuSans-3" transform="translate(302.640625 0)"/>
      <use xlink:href="#DejaVuSans-4c" transform="translate(334.421875 0)"/>
      <use xlink:href="#DejaVuSans-51" transform="translate(362.203125 0)"/>
      <use xlink:href="#DejaVuSans-57" transform="translate(425.578125 0)"/>
      <use xlink:href="#DejaVuSans-48" transform="translate(464.78125 0)"/>
      <use xlink:href="#DejaVuSans-55" transform="translate(526.3125 0)"/>
      <use xlink:href="#DejaVuSans-53" transform="translate(567.421875 0)"/>
      <use xlink:href="#DejaVuSans-52" transform="translate(630.90625 0)"/>
      <use xlink:href="#DejaVuSans-4f" transform="translate(692.09375 0)"/>
      <use xlink:href="#DejaVuSans-44" transform="translate(719.875 0)"/>
      <use xlink:href="#DejaVuSans-57" transform="translate(781.15625 0)"/>
      <use xlink:href="#DejaVuSans-48" transform="translate(820.359375 0)"/>
      <use xlink:href="#DejaVuSans-47" transform="translate(881.890625 0)"/>
      <use xlink:href="#DejaVuSans-3" transform="translate(945.375 0)"/>
      <use xlink:href="#DejaVuSans-53" transform="translate(977.15625 0)"/>
      <use xlink:href="#DejaVuSans-55" transform="translate(1040.640625 0)"/>
      <use xlink:href="#DejaVuSans-48" transform="translate(1079.546875 0)"/>
      <use xlink:href="#DejaVuSans-46" transform="translate(1141.078125 0)"/>
      <use xlink:href="#DejaVuSans-4c" transform="translate(1196.0625 0)"/>
      <use xlink:href="#DejaVuSans-56" transform="translate(1223.84375 0)"/>
      <use xlink:href="#DejaVuSans-4c" transform="translate(1275.9375 0)"/>
      <use xlink:href="#DejaVuSans-52" transform="translate(1303.71875 0)"/>
      <use xlink:href="#DejaVuSans-51" transform="translate(1364.90625 0)"/>
     </g>
    </g>
   </g>
   <g id="line2d_13">
    <path d="M 44.103906 50.79963 
L 47.189349 50.79963 
L 50.274792 50.79963 
L 53.360235 50.79963 
L 56.445678 50.79963 
L 59.531121 50.79963 
L 62.616564 50.79963 
L 65.702007 50.79963 
L 68.78745 50.79963 
L 71.872892 50.79963 
L 74.958335 50.79963 
L 78.043778 52.020146 
L 81.129221 52.020146 
L 84.214664 52.020146 
L 87.300107 52.020146 
L 90.38555 52.598284 
L 93.470993 52.598284 
L 96.556436 52.598284 
L 99.641879 52.598284 
L 102.727322 52.598284 
L 105.812765 52.598284 
L 108.898207 56.686551 
L 111.98365 56.686551 
L 115.069093 56.686551 
L 118.154536 56.686551 
L 121.239979 56.686551 
L 124.325422 58.916515 
L 127.410865 58.916515 
L 130.496308 58.916515 
L 133.581751 58.916515 
L 136.667194 58.916515 
L 139.752637 62.174615 
L 142.838079 62.174615 
L 145.923522 62.174615 
L 149.008965 65.014595 
L 152.094408 65.014595 
L 155.179851 65.014595 
L 158.265294 65.014595 
L 161.350737 65.721209 
L 164.43618 65.721209 
L 167.521623 65.721209 
L 170.607066 69.448751 
L 173.692509 69.448751 
L 176.777951 69.448751 
L 179.863394 69.448751 
L 182.948837 69.448751 
L 186.03428 69.448751 
L 189.119723 69.448751 
L 192.205166 69.448751 
L 195.290609 69.448751 
L 198.376052 69.448751 
L 201.461495 93.107841 
L 204.546938 93.107841 
L 207.632381 93.107841 
L 210.717824 93.107841 
L 213.803266 93.107841 
L 216.888709 93.107841 
L 219.974152 93.107841 
L 223.059595 93.107841 
L 226.145038 93.107841 
L 229.230481 93.107841 
L 232.315924 95.437415 
L 235.401367 95.437415 
L 238.48681 95.437415 
L 241.572253 95.437415 
L 244.657696 95.437415 
L 247.743138 95.437415 
L 250.828581 101.04396 
L 253.914024 101.04396 
L 256.999467 101.04396 
L 260.08491 104.489655 
L 263.170353 104.489655 
L 266.255796 105.150385 
L 269.341239 105.150385 
L 272.426682 105.150385 
L 275.512125 105.150385 
L 278.597568 109.172193 
L 281.683011 109.172193 
L 284.768453 109.634704 
L 287.853896 109.634704 
L 290.939339 109.634704 
L 294.024782 114.314084 
L 297.110225 114.314084 
L 300.195668 114.314084 
L 303.281111 116.315668 
L 306.366554 116.315668 
L 309.451997 118.42931 
L 312.53744 118.42931 
L 315.622883 118.770937 
L 318.708325 119.019982 
L 321.793768 119.019982 
L 324.879211 128.857506 
L 327.964654 128.857506 
L 331.050097 128.857506 
L 334.13554 128.857506 
L 337.220983 128.857506 
L 340.306426 128.857506 
L 343.391869 128.857506 
L 346.477312 128.857506 
L 349.562755 128.857506 
L 352.648197 128.857506 
" clip-path="url(#p4014c8d0ec)" style="fill: none; stroke: #315c91; stroke-width: 1.5; stroke-linecap: square"/>
   </g>
   <g id="line2d_14">
    <path d="M 44.103906 49.701966 
L 47.189349 49.701966 
L 50.274792 49.701966 
L 53.360235 49.701966 
L 56.445678 49.701966 
L 59.531121 49.701966 
L 62.616564 49.701966 
L 65.702007 49.701966 
L 68.78745 49.701966 
L 71.872892 49.701966 
L 74.958335 49.701966 
L 78.043778 52.014521 
L 81.129221 52.014521 
L 84.214664 52.59266 
L 87.300107 52.59266 
L 90.38555 53.170798 
L 93.470993 53.170798 
L 96.556436 53.170798 
L 99.641879 53.170798 
L 102.727322 53.170798 
L 105.812765 53.170798 
L 108.898207 57.012774 
L 111.98365 57.012774 
L 115.069093 57.012774 
L 118.154536 57.012774 
L 121.239979 57.012774 
L 124.325422 58.895855 
L 127.410865 58.895855 
L 130.496308 58.895855 
L 133.581751 58.895855 
L 136.667194 58.895855 
L 139.752637 62.138604 
L 142.838079 62.138604 
L 145.923522 62.138604 
L 149.008965 64.91367 
L 152.094408 64.91367 
L 155.179851 64.91367 
L 158.265294 64.91367 
L 161.350737 65.877235 
L 164.43618 65.877235 
L 167.521623 65.877235 
L 170.607066 69.81572 
L 173.692509 69.81572 
L 176.777951 69.81572 
L 179.863394 69.81572 
L 182.948837 69.81572 
L 186.03428 69.81572 
L 189.119723 69.81572 
L 192.205166 69.81572 
L 195.290609 69.81572 
L 198.376052 69.81572 
L 201.461495 93.001238 
L 204.546938 93.001238 
L 207.632381 93.001238 
L 210.717824 93.001238 
L 213.803266 93.001238 
L 216.888709 93.001238 
L 219.974152 93.001238 
L 223.059595 93.001238 
L 226.145038 93.001238 
L 229.230481 93.001238 
L 232.315924 95.621786 
L 235.401367 95.621786 
L 238.48681 95.621786 
L 241.572253 95.621786 
L 244.657696 95.621786 
L 247.743138 95.621786 
L 250.828581 102.27677 
L 253.914024 102.27677 
L 256.999467 102.27677 
L 260.08491 104.866915 
L 263.170353 104.866915 
L 266.255796 105.155984 
L 269.341239 105.155984 
L 272.426682 105.155984 
L 275.512125 105.155984 
L 278.597568 109.877018 
L 281.683011 109.877018 
L 284.768453 110.95621 
L 287.853896 110.95621 
L 290.939339 110.95621 
L 294.024782 116.315448 
L 297.110225 116.315448 
L 300.195668 116.315448 
L 303.281111 118.812386 
L 306.366554 118.812386 
L 309.451997 120.911617 
L 312.53744 120.911617 
L 315.622883 121.542314 
L 318.708325 121.551383 
L 321.793768 121.551383 
L 324.879211 131.04239 
L 327.964654 131.04239 
L 331.050097 131.04239 
L 334.13554 131.04239 
L 337.220983 131.04239 
L 340.306426 131.04239 
L 343.391869 131.04239 
L 346.477312 131.04239 
L 349.562755 131.04239 
L 352.648197 131.04239 
" clip-path="url(#p4014c8d0ec)" style="fill: none; stroke: #bb7b22; stroke-width: 1.5; stroke-linecap: square"/>
   </g>
   <g id="line2d_15">
    <path d="M 44.103906 52.30566 
L 47.189349 52.30566 
L 50.274792 52.30566 
L 53.360235 52.30566 
L 56.445678 52.30566 
L 59.531121 52.30566 
L 62.616564 52.30566 
L 65.702007 52.30566 
L 68.78745 52.30566 
L 71.872892 52.30566 
L 74.958335 52.30566 
L 78.043778 53.616108 
L 81.129221 53.616108 
L 84.214664 53.616108 
L 87.300107 53.616108 
L 90.38555 53.616108 
L 93.470993 53.616108 
L 96.556436 53.616108 
L 99.641879 53.616108 
L 102.727322 53.616108 
L 105.812765 53.616108 
L 108.898207 58.33115 
L 111.98365 58.33115 
L 115.069093 58.33115 
L 118.154536 58.33115 
L 121.239979 58.33115 
L 124.325422 59.982975 
L 127.410865 59.982975 
L 130.496308 59.982975 
L 133.581751 59.982975 
L 136.667194 59.982975 
L 139.752637 62.782819 
L 142.838079 62.782819 
L 145.923522 62.782819 
L 149.008965 64.902661 
L 152.094408 64.902661 
L 155.179851 64.902661 
L 158.265294 64.902661 
L 161.350737 66.058939 
L 164.43618 66.058939 
L 167.521623 66.058939 
L 170.607066 69.685688 
L 173.692509 69.685688 
L 176.777951 69.685688 
L 179.863394 69.685688 
L 182.948837 69.685688 
L 186.03428 69.685688 
L 189.119723 69.685688 
L 192.205166 69.685688 
L 195.290609 69.685688 
L 198.376052 69.685688 
L 201.461495 95.316069 
L 204.546938 95.316069 
L 207.632381 95.316069 
L 210.717824 95.316069 
L 213.803266 95.316069 
L 216.888709 95.316069 
L 219.974152 95.316069 
L 223.059595 95.316069 
L 226.145038 95.316069 
L 229.230481 95.316069 
L 232.315924 98.819247 
L 235.401367 98.819247 
L 238.48681 99.149612 
L 241.572253 99.149612 
L 244.657696 99.149612 
L 247.743138 99.149612 
L 250.828581 104.576002 
L 253.914024 104.576002 
L 256.999467 104.576002 
L 260.08491 107.650933 
L 263.170353 107.650933 
L 266.255796 108.235425 
L 269.341239 108.235425 
L 272.426682 108.235425 
L 275.512125 108.235425 
L 278.597568 113.254623 
L 281.683011 113.254623 
L 284.768453 113.254623 
L 287.853896 113.254623 
L 290.939339 113.254623 
L 294.024782 118.335474 
L 297.110225 118.335474 
L 300.195668 118.335474 
L 303.281111 121.418881 
L 306.366554 121.418881 
L 309.451997 124.121062 
L 312.53744 124.121062 
L 315.622883 124.296255 
L 318.708325 124.527511 
L 321.793768 124.527511 
L 324.879211 130.6877 
L 327.964654 130.6877 
L 331.050097 130.6877 
L 334.13554 130.6877 
L 337.220983 130.6877 
L 340.306426 130.6877 
L 343.391869 130.6877 
L 346.477312 130.6877 
L 349.562755 130.6877 
L 352.648197 130.6877 
" clip-path="url(#p4014c8d0ec)" style="fill: none; stroke: #28836c; stroke-width: 1.5; stroke-linecap: square"/>
   </g>
   <g id="patch_3">
    <path d="M 44.103906 258.198739 
L 44.103906 22.318125 
" style="fill: none; stroke: #000000; stroke-width: 0.8; stroke-linejoin: miter; stroke-linecap: square"/>
   </g>
   <g id="patch_4">
    <path d="M 44.103906 258.198739 
L 352.648197 258.198739 
" style="fill: none; stroke: #000000; stroke-width: 0.8; stroke-linejoin: miter; stroke-linecap: square"/>
   </g>
   <g id="text_15">
    <!-- All targets -->
    <g transform="translate(167.661677 16.318125) scale(0.12 -0.12)">
     <defs>
      <path id="DejaVuSans-24" d="M 2188 4044 
L 1331 1722 
L 3047 1722 
L 2188 4044 
z
M 1831 4666 
L 2547 4666 
L 4325 0 
L 3669 0 
L 3244 1197 
L 1141 1197 
L 716 0 
L 50 0 
L 1831 4666 
z
" transform="scale(0.015625)"/>
      <path id="DejaVuSans-4a" d="M 2906 1791 
Q 2906 2416 2648 2759 
Q 2391 3103 1925 3103 
Q 1463 3103 1205 2759 
Q 947 2416 947 1791 
Q 947 1169 1205 825 
Q 1463 481 1925 481 
Q 2391 481 2648 825 
Q 2906 1169 2906 1791 
z
M 3481 434 
Q 3481 -459 3084 -895 
Q 2688 -1331 1869 -1331 
Q 1566 -1331 1297 -1286 
Q 1028 -1241 775 -1147 
L 775 -588 
Q 1028 -725 1275 -790 
Q 1522 -856 1778 -856 
Q 2344 -856 2625 -561 
Q 2906 -266 2906 331 
L 2906 616 
Q 2728 306 2450 153 
Q 2172 0 1784 0 
Q 1141 0 747 490 
Q 353 981 353 1791 
Q 353 2603 747 3093 
Q 1141 3584 1784 3584 
Q 2172 3584 2450 3431 
Q 2728 3278 2906 2969 
L 2906 3500 
L 3481 3500 
L 3481 434 
z
" transform="scale(0.015625)"/>
     </defs>
     <use xlink:href="#DejaVuSans-24"/>
     <use xlink:href="#DejaVuSans-4f" transform="translate(68.40625 0)"/>
     <use xlink:href="#DejaVuSans-4f" transform="translate(96.1875 0)"/>
     <use xlink:href="#DejaVuSans-3" transform="translate(123.96875 0)"/>
     <use xlink:href="#DejaVuSans-57" transform="translate(155.75 0)"/>
     <use xlink:href="#DejaVuSans-44" transform="translate(194.953125 0)"/>
     <use xlink:href="#DejaVuSans-55" transform="translate(256.234375 0)"/>
     <use xlink:href="#DejaVuSans-4a" transform="translate(295.59375 0)"/>
     <use xlink:href="#DejaVuSans-48" transform="translate(359.078125 0)"/>
     <use xlink:href="#DejaVuSans-57" transform="translate(420.609375 0)"/>
     <use xlink:href="#DejaVuSans-56" transform="translate(459.8125 0)"/>
    </g>
   </g>
   <g id="legend_1">
    <g id="patch_5">
     <path d="M 223.338197 64.72 
L 347.048197 64.72 
Q 348.648197 64.72 348.648197 63.12 
L 348.648197 27.918125 
Q 348.648197 26.318125 347.048197 26.318125 
L 223.338197 26.318125 
Q 221.738197 26.318125 221.738197 27.918125 
L 221.738197 63.12 
Q 221.738197 64.72 223.338197 64.72 
z
" style="fill: #ffffff; opacity: 0.8; stroke: #cccccc; stroke-linejoin: miter"/>
    </g>
    <g id="line2d_16">
     <path d="M 224.938197 32.796875 
L 232.938197 32.796875 
L 240.938197 32.796875 
" style="fill: none; stroke: #315c91; stroke-width: 1.5; stroke-linecap: square"/>
    </g>
    <g id="text_16">
     <!-- Official / original matrix -->
     <g transform="translate(247.338197 35.596875) scale(0.08 -0.08)">
      <defs>
       <path id="DejaVuSans-32" d="M 2522 4238 
Q 1834 4238 1429 3725 
Q 1025 3213 1025 2328 
Q 1025 1447 1429 934 
Q 1834 422 2522 422 
Q 3209 422 3611 934 
Q 4013 1447 4013 2328 
Q 4013 3213 3611 3725 
Q 3209 4238 2522 4238 
z
M 2522 4750 
Q 3503 4750 4090 4092 
Q 4678 3434 4678 2328 
Q 4678 1225 4090 567 
Q 3503 -91 2522 -91 
Q 1538 -91 948 565 
Q 359 1222 359 2328 
Q 359 3434 948 4092 
Q 1538 4750 2522 4750 
z
" transform="scale(0.015625)"/>
       <path id="DejaVuSans-13b1" d="M 2375 4863 
L 2375 4384 
L 1825 4384 
Q 1516 4384 1394 4259 
Q 1275 4134 1275 3809 
L 1275 3500 
L 2853 3500 
L 2853 3744 
Q 2853 4328 3125 4594 
Q 3213 4681 3334 4741 
Q 3578 4863 3988 4863 
L 4531 4863 
L 4531 4384 
L 3981 4384 
Q 3672 4384 3551 4259 
Q 3431 4134 3431 3809 
L 3431 3500 
L 5588 3500 
L 5588 0 
L 5009 0 
L 5009 3053 
L 3431 3053 
L 3431 0 
L 2853 0 
L 2853 3053 
L 1275 3053 
L 1275 0 
L 697 0 
L 697 3053 
L 147 3053 
L 147 3500 
L 697 3500 
L 697 3744 
Q 697 4328 969 4595 
Q 1241 4863 1831 4863 
L 2375 4863 
z
M 5009 4856 
L 5588 4856 
L 5588 4128 
L 5009 4128 
L 5009 4856 
z
" transform="scale(0.015625)"/>
       <path id="DejaVuSans-12" d="M 1625 4666 
L 2156 4666 
L 531 -594 
L 0 -594 
L 1625 4666 
z
" transform="scale(0.015625)"/>
       <path id="DejaVuSans-50" d="M 3328 2828 
Q 3544 3216 3844 3400 
Q 4144 3584 4550 3584 
Q 5097 3584 5394 3201 
Q 5691 2819 5691 2113 
L 5691 0 
L 5113 0 
L 5113 2094 
Q 5113 2597 4934 2840 
Q 4756 3084 4391 3084 
Q 3944 3084 3684 2787 
Q 3425 2491 3425 1978 
L 3425 0 
L 2847 0 
L 2847 2094 
Q 2847 2600 2669 2842 
Q 2491 3084 2119 3084 
Q 1678 3084 1418 2786 
Q 1159 2488 1159 1978 
L 1159 0 
L 581 0 
L 581 3500 
L 1159 3500 
L 1159 2956 
Q 1356 3278 1631 3431 
Q 1906 3584 2284 3584 
Q 2666 3584 2933 3390 
Q 3200 3197 3328 2828 
z
" transform="scale(0.015625)"/>
       <path id="DejaVuSans-5b" d="M 3513 3500 
L 2247 1797 
L 3578 0 
L 2900 0 
L 1881 1375 
L 863 0 
L 184 0 
L 1544 1831 
L 300 3500 
L 978 3500 
L 1906 2253 
L 2834 3500 
L 3513 3500 
z
" transform="scale(0.015625)"/>
      </defs>
      <use xlink:href="#DejaVuSans-32"/>
      <use xlink:href="#DejaVuSans-13b1" transform="translate(78.71875 0)"/>
      <use xlink:href="#DejaVuSans-46" transform="translate(175.40625 0)"/>
      <use xlink:href="#DejaVuSans-4c" transform="translate(230.390625 0)"/>
      <use xlink:href="#DejaVuSans-44" transform="translate(258.171875 0)"/>
      <use xlink:href="#DejaVuSans-4f" transform="translate(319.453125 0)"/>
      <use xlink:href="#DejaVuSans-3" transform="translate(347.234375 0)"/>
      <use xlink:href="#DejaVuSans-12" transform="translate(379.015625 0)"/>
      <use xlink:href="#DejaVuSans-3" transform="translate(412.703125 0)"/>
      <use xlink:href="#DejaVuSans-52" transform="translate(444.484375 0)"/>
      <use xlink:href="#DejaVuSans-55" transform="translate(505.671875 0)"/>
      <use xlink:href="#DejaVuSans-4c" transform="translate(546.78125 0)"/>
      <use xlink:href="#DejaVuSans-4a" transform="translate(574.5625 0)"/>
      <use xlink:href="#DejaVuSans-4c" transform="translate(638.046875 0)"/>
      <use xlink:href="#DejaVuSans-51" transform="translate(665.828125 0)"/>
      <use xlink:href="#DejaVuSans-44" transform="translate(729.203125 0)"/>
      <use xlink:href="#DejaVuSans-4f" transform="translate(790.484375 0)"/>
      <use xlink:href="#DejaVuSans-3" transform="translate(818.265625 0)"/>
      <use xlink:href="#DejaVuSans-50" transform="translate(850.046875 0)"/>
      <use xlink:href="#DejaVuSans-44" transform="translate(947.453125 0)"/>
      <use xlink:href="#DejaVuSans-57" transform="translate(1008.734375 0)"/>
      <use xlink:href="#DejaVuSans-55" transform="translate(1047.9375 0)"/>
      <use xlink:href="#DejaVuSans-4c" transform="translate(1089.046875 0)"/>
      <use xlink:href="#DejaVuSans-5b" transform="translate(1116.828125 0)"/>
     </g>
    </g>
    <g id="line2d_17">
     <path d="M 224.938197 44.7975 
L 232.938197 44.7975 
L 240.938197 44.7975 
" style="fill: none; stroke: #bb7b22; stroke-width: 1.5; stroke-linecap: square"/>
    </g>
    <g id="text_17">
     <!-- Official / refitted matrix -->
     <g transform="translate(247.338197 47.5975) scale(0.08 -0.08)">
      <defs>
       <path id="DejaVuSans-13af" d="M 3431 3500 
L 3431 0 
L 2853 0 
L 2853 3053 
L 1275 3053 
L 1275 0 
L 697 0 
L 697 3053 
L 147 3053 
L 147 3500 
L 697 3500 
L 697 3744 
Q 697 4316 967 4589 
Q 1238 4863 1797 4863 
L 2375 4863 
L 2375 4384 
L 1825 4384 
Q 1516 4384 1395 4259 
Q 1275 4134 1275 3809 
L 1275 3500 
L 3431 3500 
z
M 2853 4856 
L 3431 4856 
L 3431 4128 
L 2853 4128 
L 2853 4856 
z
" transform="scale(0.015625)"/>
      </defs>
      <use xlink:href="#DejaVuSans-32"/>
      <use xlink:href="#DejaVuSans-13b1" transform="translate(78.71875 0)"/>
      <use xlink:href="#DejaVuSans-46" transform="translate(175.40625 0)"/>
      <use xlink:href="#DejaVuSans-4c" transform="translate(230.390625 0)"/>
      <use xlink:href="#DejaVuSans-44" transform="translate(258.171875 0)"/>
      <use xlink:href="#DejaVuSans-4f" transform="translate(319.453125 0)"/>
      <use xlink:href="#DejaVuSans-3" transform="translate(347.234375 0)"/>
      <use xlink:href="#DejaVuSans-12" transform="translate(379.015625 0)"/>
      <use xlink:href="#DejaVuSans-3" transform="translate(412.703125 0)"/>
      <use xlink:href="#DejaVuSans-55" transform="translate(444.484375 0)"/>
      <use xlink:href="#DejaVuSans-48" transform="translate(483.390625 0)"/>
      <use xlink:href="#DejaVuSans-13af" transform="translate(544.921875 0)"/>
      <use xlink:href="#DejaVuSans-57" transform="translate(607.90625 0)"/>
      <use xlink:href="#DejaVuSans-57" transform="translate(647.109375 0)"/>
      <use xlink:href="#DejaVuSans-48" transform="translate(686.3125 0)"/>
      <use xlink:href="#DejaVuSans-47" transform="translate(747.84375 0)"/>
      <use xlink:href="#DejaVuSans-3" transform="translate(811.328125 0)"/>
      <use xlink:href="#DejaVuSans-50" transform="translate(843.109375 0)"/>
      <use xlink:href="#DejaVuSans-44" transform="translate(940.515625 0)"/>
      <use xlink:href="#DejaVuSans-57" transform="translate(1001.796875 0)"/>
      <use xlink:href="#DejaVuSans-55" transform="translate(1041 0)"/>
      <use xlink:href="#DejaVuSans-4c" transform="translate(1082.109375 0)"/>
      <use xlink:href="#DejaVuSans-5b" transform="translate(1109.890625 0)"/>
     </g>
    </g>
    <g id="line2d_18">
     <path d="M 224.938197 56.798125 
L 232.938197 56.798125 
L 240.938197 56.798125 
" style="fill: none; stroke: #28836c; stroke-width: 1.5; stroke-linecap: square"/>
    </g>
    <g id="text_18">
     <!-- Learned / refitted matrix -->
     <g transform="translate(247.338197 59.598125) scale(0.08 -0.08)">
      <defs>
       <path id="DejaVuSans-2f" d="M 628 4666 
L 1259 4666 
L 1259 531 
L 3531 531 
L 3531 0 
L 628 0 
L 628 4666 
z
" transform="scale(0.015625)"/>
      </defs>
      <use xlink:href="#DejaVuSans-2f"/>
      <use xlink:href="#DejaVuSans-48" transform="translate(53.96875 0)"/>
      <use xlink:href="#DejaVuSans-44" transform="translate(115.5 0)"/>
      <use xlink:href="#DejaVuSans-55" transform="translate(176.78125 0)"/>
      <use xlink:href="#DejaVuSans-51" transform="translate(216.140625 0)"/>
      <use xlink:href="#DejaVuSans-48" transform="translate(279.515625 0)"/>
      <use xlink:href="#DejaVuSans-47" transform="translate(341.046875 0)"/>
      <use xlink:href="#DejaVuSans-3" transform="translate(404.53125 0)"/>
      <use xlink:href="#DejaVuSans-12" transform="translate(436.3125 0)"/>
      <use xlink:href="#DejaVuSans-3" transform="translate(470 0)"/>
      <use xlink:href="#DejaVuSans-55" transform="translate(501.78125 0)"/>
      <use xlink:href="#DejaVuSans-48" transform="translate(540.6875 0)"/>
      <use xlink:href="#DejaVuSans-13af" transform="translate(602.21875 0)"/>
      <use xlink:href="#DejaVuSans-57" transform="translate(665.203125 0)"/>
      <use xlink:href="#DejaVuSans-57" transform="translate(704.40625 0)"/>
      <use xlink:href="#DejaVuSans-48" transform="translate(743.609375 0)"/>
      <use xlink:href="#DejaVuSans-47" transform="translate(805.140625 0)"/>
      <use xlink:href="#DejaVuSans-3" transform="translate(868.625 0)"/>
      <use xlink:href="#DejaVuSans-50" transform="translate(900.40625 0)"/>
      <use xlink:href="#DejaVuSans-44" transform="translate(997.8125 0)"/>
      <use xlink:href="#DejaVuSans-57" transform="translate(1059.09375 0)"/>
      <use xlink:href="#DejaVuSans-55" transform="translate(1098.296875 0)"/>
      <use xlink:href="#DejaVuSans-4c" transform="translate(1139.40625 0)"/>
      <use xlink:href="#DejaVuSans-5b" transform="translate(1167.1875 0)"/>
     </g>
    </g>
   </g>
  </g>
  <g id="axes_2">
   <g id="patch_6">
    <path d="M 404.703666 258.198739 
L 713.247957 258.198739 
L 713.247957 22.318125 
L 404.703666 22.318125 
z
" style="fill: #ffffff"/>
   </g>
   <g id="matplotlib.axis_3">
    <g id="xtick_7">
     <g id="line2d_19">
      <g>
       <use xlink:href="#mcbe6251ecf" x="404.703666" y="258.198739" style="stroke: #000000; stroke-width: 0.8"/>
      </g>
     </g>
     <g id="text_19">
      <!-- 0.0 -->
      <g transform="translate(396.752104 272.796395) scale(0.1 -0.1)">
       <use xlink:href="#DejaVuSans-13"/>
       <use xlink:href="#DejaVuSans-11" transform="translate(63.625 0)"/>
       <use xlink:href="#DejaVuSans-13" transform="translate(95.40625 0)"/>
      </g>
     </g>
    </g>
    <g id="xtick_8">
     <g id="line2d_20">
      <g>
       <use xlink:href="#mcbe6251ecf" x="466.412524" y="258.198739" style="stroke: #000000; stroke-width: 0.8"/>
      </g>
     </g>
     <g id="text_20">
      <!-- 0.2 -->
      <g transform="translate(458.460962 272.796395) scale(0.1 -0.1)">
       <use xlink:href="#DejaVuSans-13"/>
       <use xlink:href="#DejaVuSans-11" transform="translate(63.625 0)"/>
       <use xlink:href="#DejaVuSans-15" transform="translate(95.40625 0)"/>
      </g>
     </g>
    </g>
    <g id="xtick_9">
     <g id="line2d_21">
      <g>
       <use xlink:href="#mcbe6251ecf" x="528.121383" y="258.198739" style="stroke: #000000; stroke-width: 0.8"/>
      </g>
     </g>
     <g id="text_21">
      <!-- 0.4 -->
      <g transform="translate(520.16982 272.796395) scale(0.1 -0.1)">
       <use xlink:href="#DejaVuSans-13"/>
       <use xlink:href="#DejaVuSans-11" transform="translate(63.625 0)"/>
       <use xlink:href="#DejaVuSans-17" transform="translate(95.40625 0)"/>
      </g>
     </g>
    </g>
    <g id="xtick_10">
     <g id="line2d_22">
      <g>
       <use xlink:href="#mcbe6251ecf" x="589.830241" y="258.198739" style="stroke: #000000; stroke-width: 0.8"/>
      </g>
     </g>
     <g id="text_22">
      <!-- 0.6 -->
      <g transform="translate(581.878678 272.796395) scale(0.1 -0.1)">
       <use xlink:href="#DejaVuSans-13"/>
       <use xlink:href="#DejaVuSans-11" transform="translate(63.625 0)"/>
       <use xlink:href="#DejaVuSans-19" transform="translate(95.40625 0)"/>
      </g>
     </g>
    </g>
    <g id="xtick_11">
     <g id="line2d_23">
      <g>
       <use xlink:href="#mcbe6251ecf" x="651.539099" y="258.198739" style="stroke: #000000; stroke-width: 0.8"/>
      </g>
     </g>
     <g id="text_23">
      <!-- 0.8 -->
      <g transform="translate(643.587537 272.796395) scale(0.1 -0.1)">
       <use xlink:href="#DejaVuSans-13"/>
       <use xlink:href="#DejaVuSans-11" transform="translate(63.625 0)"/>
       <use xlink:href="#DejaVuSans-1b" transform="translate(95.40625 0)"/>
      </g>
     </g>
    </g>
    <g id="xtick_12">
     <g id="line2d_24">
      <g>
       <use xlink:href="#mcbe6251ecf" x="713.247957" y="258.198739" style="stroke: #000000; stroke-width: 0.8"/>
      </g>
     </g>
     <g id="text_24">
      <!-- 1.0 -->
      <g transform="translate(705.296395 272.796395) scale(0.1 -0.1)">
       <use xlink:href="#DejaVuSans-14"/>
       <use xlink:href="#DejaVuSans-11" transform="translate(63.625 0)"/>
       <use xlink:href="#DejaVuSans-13" transform="translate(95.40625 0)"/>
      </g>
     </g>
    </g>
    <g id="text_25">
     <!-- Recall -->
     <g transform="translate(544.057843 286.797176) scale(0.1 -0.1)">
      <use xlink:href="#DejaVuSans-35"/>
      <use xlink:href="#DejaVuSans-48" transform="translate(65 0)"/>
      <use xlink:href="#DejaVuSans-46" transform="translate(126.53125 0)"/>
      <use xlink:href="#DejaVuSans-44" transform="translate(181.515625 0)"/>
      <use xlink:href="#DejaVuSans-4f" transform="translate(242.796875 0)"/>
      <use xlink:href="#DejaVuSans-4f" transform="translate(270.578125 0)"/>
     </g>
    </g>
   </g>
   <g id="matplotlib.axis_4">
    <g id="ytick_7">
     <g id="line2d_25">
      <g>
       <use xlink:href="#mdcc7a6cec2" x="404.703666" y="258.198739" style="stroke: #000000; stroke-width: 0.8"/>
      </g>
     </g>
     <g id="text_26">
      <!-- 0.0 -->
      <g transform="translate(381.800541 261.997567) scale(0.1 -0.1)">
       <use xlink:href="#DejaVuSans-13"/>
       <use xlink:href="#DejaVuSans-11" transform="translate(63.625 0)"/>
       <use xlink:href="#DejaVuSans-13" transform="translate(95.40625 0)"/>
      </g>
     </g>
    </g>
    <g id="ytick_8">
     <g id="line2d_26">
      <g>
       <use xlink:href="#mdcc7a6cec2" x="404.703666" y="211.947638" style="stroke: #000000; stroke-width: 0.8"/>
      </g>
     </g>
     <g id="text_27">
      <!-- 0.2 -->
      <g transform="translate(381.800541 215.746466) scale(0.1 -0.1)">
       <use xlink:href="#DejaVuSans-13"/>
       <use xlink:href="#DejaVuSans-11" transform="translate(63.625 0)"/>
       <use xlink:href="#DejaVuSans-15" transform="translate(95.40625 0)"/>
      </g>
     </g>
    </g>
    <g id="ytick_9">
     <g id="line2d_27">
      <g>
       <use xlink:href="#mdcc7a6cec2" x="404.703666" y="165.696537" style="stroke: #000000; stroke-width: 0.8"/>
      </g>
     </g>
     <g id="text_28">
      <!-- 0.4 -->
      <g transform="translate(381.800541 169.495365) scale(0.1 -0.1)">
       <use xlink:href="#DejaVuSans-13"/>
       <use xlink:href="#DejaVuSans-11" transform="translate(63.625 0)"/>
       <use xlink:href="#DejaVuSans-17" transform="translate(95.40625 0)"/>
      </g>
     </g>
    </g>
    <g id="ytick_10">
     <g id="line2d_28">
      <g>
       <use xlink:href="#mdcc7a6cec2" x="404.703666" y="119.445437" style="stroke: #000000; stroke-width: 0.8"/>
      </g>
     </g>
     <g id="text_29">
      <!-- 0.6 -->
      <g transform="translate(381.800541 123.244265) scale(0.1 -0.1)">
       <use xlink:href="#DejaVuSans-13"/>
       <use xlink:href="#DejaVuSans-11" transform="translate(63.625 0)"/>
       <use xlink:href="#DejaVuSans-19" transform="translate(95.40625 0)"/>
      </g>
     </g>
    </g>
    <g id="ytick_11">
     <g id="line2d_29">
      <g>
       <use xlink:href="#mdcc7a6cec2" x="404.703666" y="73.194336" style="stroke: #000000; stroke-width: 0.8"/>
      </g>
     </g>
     <g id="text_30">
      <!-- 0.8 -->
      <g transform="translate(381.800541 76.993164) scale(0.1 -0.1)">
       <use xlink:href="#DejaVuSans-13"/>
       <use xlink:href="#DejaVuSans-11" transform="translate(63.625 0)"/>
       <use xlink:href="#DejaVuSans-1b" transform="translate(95.40625 0)"/>
      </g>
     </g>
    </g>
    <g id="ytick_12">
     <g id="line2d_30">
      <g>
       <use xlink:href="#mdcc7a6cec2" x="404.703666" y="26.943235" style="stroke: #000000; stroke-width: 0.8"/>
      </g>
     </g>
     <g id="text_31">
      <!-- 1.0 -->
      <g transform="translate(381.800541 30.742063) scale(0.1 -0.1)">
       <use xlink:href="#DejaVuSans-14"/>
       <use xlink:href="#DejaVuSans-11" transform="translate(63.625 0)"/>
       <use xlink:href="#DejaVuSans-13" transform="translate(95.40625 0)"/>
      </g>
     </g>
    </g>
    <g id="text_32">
     <!-- Macro interpolated precision -->
     <g transform="translate(375.398197 211.672494) rotate(-90) scale(0.1 -0.1)">
      <use xlink:href="#DejaVuSans-30"/>
      <use xlink:href="#DejaVuSans-44" transform="translate(86.28125 0)"/>
      <use xlink:href="#DejaVuSans-46" transform="translate(147.5625 0)"/>
      <use xlink:href="#DejaVuSans-55" transform="translate(202.546875 0)"/>
      <use xlink:href="#DejaVuSans-52" transform="translate(241.453125 0)"/>
      <use xlink:href="#DejaVuSans-3" transform="translate(302.640625 0)"/>
      <use xlink:href="#DejaVuSans-4c" transform="translate(334.421875 0)"/>
      <use xlink:href="#DejaVuSans-51" transform="translate(362.203125 0)"/>
      <use xlink:href="#DejaVuSans-57" transform="translate(425.578125 0)"/>
      <use xlink:href="#DejaVuSans-48" transform="translate(464.78125 0)"/>
      <use xlink:href="#DejaVuSans-55" transform="translate(526.3125 0)"/>
      <use xlink:href="#DejaVuSans-53" transform="translate(567.421875 0)"/>
      <use xlink:href="#DejaVuSans-52" transform="translate(630.90625 0)"/>
      <use xlink:href="#DejaVuSans-4f" transform="translate(692.09375 0)"/>
      <use xlink:href="#DejaVuSans-44" transform="translate(719.875 0)"/>
      <use xlink:href="#DejaVuSans-57" transform="translate(781.15625 0)"/>
      <use xlink:href="#DejaVuSans-48" transform="translate(820.359375 0)"/>
      <use xlink:href="#DejaVuSans-47" transform="translate(881.890625 0)"/>
      <use xlink:href="#DejaVuSans-3" transform="translate(945.375 0)"/>
      <use xlink:href="#DejaVuSans-53" transform="translate(977.15625 0)"/>
      <use xlink:href="#DejaVuSans-55" transform="translate(1040.640625 0)"/>
      <use xlink:href="#DejaVuSans-48" transform="translate(1079.546875 0)"/>
      <use xlink:href="#DejaVuSans-46" transform="translate(1141.078125 0)"/>
      <use xlink:href="#DejaVuSans-4c" transform="translate(1196.0625 0)"/>
      <use xlink:href="#DejaVuSans-56" transform="translate(1223.84375 0)"/>
      <use xlink:href="#DejaVuSans-4c" transform="translate(1275.9375 0)"/>
      <use xlink:href="#DejaVuSans-52" transform="translate(1303.71875 0)"/>
      <use xlink:href="#DejaVuSans-51" transform="translate(1364.90625 0)"/>
     </g>
    </g>
   </g>
   <g id="line2d_31">
    <path d="M 404.703666 75.601426 
L 407.789109 75.601426 
L 410.874552 75.601426 
L 413.959995 75.601426 
L 417.045438 75.601426 
L 420.130881 75.601426 
L 423.216324 75.601426 
L 426.301767 75.601426 
L 429.38721 75.601426 
L 432.472652 75.601426 
L 435.558095 75.601426 
L 438.643538 75.665664 
L 441.728981 75.665664 
L 444.814424 76.436516 
L 447.899867 76.436516 
L 450.98531 77.014654 
L 454.070753 77.014654 
L 457.156196 80.570936 
L 460.241639 80.570936 
L 463.327082 80.570936 
L 466.412524 80.570936 
L 469.497967 82.363167 
L 472.58341 82.363167 
L 475.668853 83.958032 
L 478.754296 83.958032 
L 481.839739 83.958032 
L 484.925182 84.222324 
L 488.010625 84.222324 
L 491.096068 84.222324 
L 494.181511 84.222324 
L 497.266954 84.222324 
L 500.352397 85.67593 
L 503.437839 85.67593 
L 506.523282 85.67593 
L 509.608725 87.378229 
L 512.694168 87.378229 
L 515.779611 87.378229 
L 518.865054 87.378229 
L 521.950497 87.378229 
L 525.03594 87.378229 
L 528.121383 87.378229 
L 531.206826 89.522772 
L 534.292269 89.522772 
L 537.377711 89.522772 
L 540.463154 89.522772 
L 543.548597 92.084559 
L 546.63404 92.084559 
L 549.719483 92.084559 
L 552.804926 92.084559 
L 555.890369 92.084559 
L 558.975812 92.084559 
L 562.061255 117.867962 
L 565.146698 117.867962 
L 568.232141 117.867962 
L 571.317584 117.867962 
L 574.403026 117.867962 
L 577.488469 118.190068 
L 580.573912 118.190068 
L 583.659355 118.190068 
L 586.744798 118.190068 
L 589.830241 118.190068 
L 592.915684 119.68789 
L 596.001127 119.68789 
L 599.08657 119.976959 
L 602.172013 119.976959 
L 605.257456 119.976959 
L 608.342898 119.976959 
L 611.428341 121.421924 
L 614.513784 121.421924 
L 617.599227 121.421924 
L 620.68467 121.812511 
L 623.770113 121.812511 
L 626.855556 121.812511 
L 629.940999 121.812511 
L 633.026442 121.812511 
L 636.111885 121.812511 
L 639.197328 124.922601 
L 642.282771 124.922601 
L 645.368213 125.711211 
L 648.453656 125.711211 
L 651.539099 125.711211 
L 654.624542 127.147859 
L 657.709985 127.147859 
L 660.795428 127.147859 
L 663.880871 127.566113 
L 666.966314 127.566113 
L 670.051757 128.863019 
L 673.1372 128.863019 
L 676.222643 130.876694 
L 679.308085 132.062599 
L 682.393528 132.062599 
L 685.478971 134.037631 
L 688.564414 134.037631 
L 691.649857 134.037631 
L 694.7353 134.037631 
L 697.820743 134.037631 
L 700.906186 134.037631 
L 703.991629 134.037631 
L 707.077072 134.037631 
L 710.162515 134.037631 
L 713.247957 134.037631 
" clip-path="url(#pc1cc22489b)" style="fill: none; stroke: #315c91; stroke-width: 1.5; stroke-linecap: square"/>
   </g>
   <g id="line2d_32">
    <path d="M 404.703666 74.393487 
L 407.789109 74.393487 
L 410.874552 74.393487 
L 413.959995 74.393487 
L 417.045438 74.393487 
L 420.130881 74.393487 
L 423.216324 74.393487 
L 426.301767 74.393487 
L 429.38721 74.393487 
L 432.472652 74.393487 
L 435.558095 74.393487 
L 438.643538 74.778913 
L 441.728981 74.778913 
L 444.814424 75.549765 
L 447.899867 75.549765 
L 450.98531 76.127904 
L 454.070753 76.127904 
L 457.156196 78.440459 
L 460.241639 78.440459 
L 463.327082 78.440459 
L 466.412524 78.440459 
L 469.497967 81.428991 
L 472.58341 81.428991 
L 475.668853 82.998225 
L 478.754296 82.998225 
L 481.839739 82.998225 
L 484.925182 83.614906 
L 488.010625 83.614906 
L 491.096068 83.614906 
L 494.181511 83.614906 
L 497.266954 83.614906 
L 500.352397 84.936366 
L 503.437839 84.936366 
L 506.523282 84.936366 
L 509.608725 87.160824 
L 512.694168 87.160824 
L 515.779611 87.160824 
L 518.865054 87.160824 
L 521.950497 87.449894 
L 525.03594 87.449894 
L 528.121383 87.449894 
L 531.206826 89.766472 
L 534.292269 89.766472 
L 537.377711 89.766472 
L 540.463154 89.766472 
L 543.548597 90.54283 
L 546.63404 90.54283 
L 549.719483 90.54283 
L 552.804926 90.54283 
L 555.890369 90.54283 
L 558.975812 90.54283 
L 562.061255 118.208368 
L 565.146698 118.208368 
L 568.232141 118.208368 
L 571.317584 118.208368 
L 574.403026 118.208368 
L 577.488469 119.062768 
L 580.573912 119.062768 
L 583.659355 119.062768 
L 586.744798 119.062768 
L 589.830241 119.062768 
L 592.915684 119.760241 
L 596.001127 119.760241 
L 599.08657 119.760241 
L 602.172013 119.760241 
L 605.257456 119.760241 
L 608.342898 119.760241 
L 611.428341 122.033406 
L 614.513784 122.033406 
L 617.599227 122.033406 
L 620.68467 122.542277 
L 623.770113 122.542277 
L 626.855556 122.542277 
L 629.940999 122.542277 
L 633.026442 122.542277 
L 636.111885 122.542277 
L 639.197328 126.087994 
L 642.282771 126.087994 
L 645.368213 126.850817 
L 648.453656 126.850817 
L 651.539099 126.850817 
L 654.624542 128.807878 
L 657.709985 128.807878 
L 660.795428 128.807878 
L 663.880871 129.314646 
L 666.966314 129.314646 
L 670.051757 130.572948 
L 673.1372 130.572948 
L 676.222643 132.623006 
L 679.308085 134.115448 
L 682.393528 134.115448 
L 685.478971 135.674456 
L 688.564414 135.674456 
L 691.649857 135.674456 
L 694.7353 135.674456 
L 697.820743 135.674456 
L 700.906186 135.674456 
L 703.991629 135.674456 
L 707.077072 135.674456 
L 710.162515 135.674456 
L 713.247957 135.674456 
" clip-path="url(#pc1cc22489b)" style="fill: none; stroke: #bb7b22; stroke-width: 1.5; stroke-linecap: square"/>
   </g>
   <g id="line2d_33">
    <path d="M 404.703666 79.32741 
L 407.789109 79.32741 
L 410.874552 79.32741 
L 413.959995 79.32741 
L 417.045438 79.32741 
L 420.130881 79.32741 
L 423.216324 79.32741 
L 426.301767 79.32741 
L 429.38721 79.32741 
L 432.472652 79.32741 
L 435.558095 79.32741 
L 438.643538 80.637858 
L 441.728981 81.408709 
L 444.814424 81.408709 
L 447.899867 81.408709 
L 450.98531 81.408709 
L 454.070753 81.408709 
L 457.156196 83.958449 
L 460.241639 83.958449 
L 463.327082 83.958449 
L 466.412524 83.958449 
L 469.497967 87.465825 
L 472.58341 87.465825 
L 475.668853 89.17271 
L 478.754296 89.17271 
L 481.839739 89.17271 
L 484.925182 90.1588 
L 488.010625 90.1588 
L 491.096068 90.1588 
L 494.181511 90.1588 
L 497.266954 90.1588 
L 500.352397 90.618558 
L 503.437839 90.618558 
L 506.523282 90.618558 
L 509.608725 94.343751 
L 512.694168 94.343751 
L 515.779611 94.343751 
L 518.865054 94.343751 
L 521.950497 94.343751 
L 525.03594 94.343751 
L 528.121383 94.343751 
L 531.206826 95.336885 
L 534.292269 95.336885 
L 537.377711 95.336885 
L 540.463154 95.336885 
L 543.548597 97.320346 
L 546.63404 97.320346 
L 549.719483 97.320346 
L 552.804926 97.320346 
L 555.890369 97.320346 
L 558.975812 97.320346 
L 562.061255 121.334881 
L 565.146698 121.334881 
L 568.232141 121.334881 
L 571.317584 121.334881 
L 574.403026 121.334881 
L 577.488469 122.513748 
L 580.573912 122.513748 
L 583.659355 122.513748 
L 586.744798 122.513748 
L 589.830241 122.513748 
L 592.915684 123.689096 
L 596.001127 123.689096 
L 599.08657 123.815235 
L 602.172013 123.815235 
L 605.257456 123.815235 
L 608.342898 123.815235 
L 611.428341 126.785168 
L 614.513784 126.785168 
L 617.599227 126.785168 
L 620.68467 127.314672 
L 623.770113 127.314672 
L 626.855556 127.899164 
L 629.940999 127.899164 
L 633.026442 127.899164 
L 636.111885 127.899164 
L 639.197328 131.090854 
L 642.282771 131.090854 
L 645.368213 131.913895 
L 648.453656 131.913895 
L 651.539099 131.913895 
L 654.624542 133.492346 
L 657.709985 133.492346 
L 660.795428 133.492346 
L 663.880871 133.509169 
L 666.966314 133.509169 
L 670.051757 134.396636 
L 673.1372 134.396636 
L 676.222643 136.708798 
L 679.308085 137.4061 
L 682.393528 137.4061 
L 685.478971 138.755887 
L 688.564414 138.755887 
L 691.649857 138.755887 
L 694.7353 138.755887 
L 697.820743 138.755887 
L 700.906186 138.755887 
L 703.991629 138.755887 
L 707.077072 138.755887 
L 710.162515 138.755887 
L 713.247957 138.755887 
" clip-path="url(#pc1cc22489b)" style="fill: none; stroke: #28836c; stroke-width: 1.5; stroke-linecap: square"/>
   </g>
   <g id="patch_7">
    <path d="M 404.703666 258.198739 
L 404.703666 22.318125 
" style="fill: none; stroke: #000000; stroke-width: 0.8; stroke-linejoin: miter; stroke-linecap: square"/>
   </g>
   <g id="patch_8">
    <path d="M 404.703666 258.198739 
L 713.247957 258.198739 
" style="fill: none; stroke: #000000; stroke-width: 0.8; stroke-linejoin: miter; stroke-linecap: square"/>
   </g>
   <g id="text_33">
    <!-- Same-family targets excluded -->
    <g transform="translate(468.975812 16.318125) scale(0.12 -0.12)">
     <defs>
      <path id="DejaVuSans-36" d="M 3425 4513 
L 3425 3897 
Q 3066 4069 2747 4153 
Q 2428 4238 2131 4238 
Q 1616 4238 1336 4038 
Q 1056 3838 1056 3469 
Q 1056 3159 1242 3001 
Q 1428 2844 1947 2747 
L 2328 2669 
Q 3034 2534 3370 2195 
Q 3706 1856 3706 1288 
Q 3706 609 3251 259 
Q 2797 -91 1919 -91 
Q 1588 -91 1214 -16 
Q 841 59 441 206 
L 441 856 
Q 825 641 1194 531 
Q 1563 422 1919 422 
Q 2459 422 2753 634 
Q 3047 847 3047 1241 
Q 3047 1584 2836 1778 
Q 2625 1972 2144 2069 
L 1759 2144 
Q 1053 2284 737 2584 
Q 422 2884 422 3419 
Q 422 4038 858 4394 
Q 1294 4750 2059 4750 
Q 2388 4750 2728 4690 
Q 3069 4631 3425 4513 
z
" transform="scale(0.015625)"/>
      <path id="DejaVuSans-10" d="M 313 2009 
L 1997 2009 
L 1997 1497 
L 313 1497 
L 313 2009 
z
" transform="scale(0.015625)"/>
      <path id="DejaVuSans-49" d="M 2375 4863 
L 2375 4384 
L 1825 4384 
Q 1516 4384 1395 4259 
Q 1275 4134 1275 3809 
L 1275 3500 
L 2222 3500 
L 2222 3053 
L 1275 3053 
L 1275 0 
L 697 0 
L 697 3053 
L 147 3053 
L 147 3500 
L 697 3500 
L 697 3744 
Q 697 4328 969 4595 
Q 1241 4863 1831 4863 
L 2375 4863 
z
" transform="scale(0.015625)"/>
      <path id="DejaVuSans-5c" d="M 2059 -325 
Q 1816 -950 1584 -1140 
Q 1353 -1331 966 -1331 
L 506 -1331 
L 506 -850 
L 844 -850 
Q 1081 -850 1212 -737 
Q 1344 -625 1503 -206 
L 1606 56 
L 191 3500 
L 800 3500 
L 1894 763 
L 2988 3500 
L 3597 3500 
L 2059 -325 
z
" transform="scale(0.015625)"/>
      <path id="DejaVuSans-58" d="M 544 1381 
L 544 3500 
L 1119 3500 
L 1119 1403 
Q 1119 906 1312 657 
Q 1506 409 1894 409 
Q 2359 409 2629 706 
Q 2900 1003 2900 1516 
L 2900 3500 
L 3475 3500 
L 3475 0 
L 2900 0 
L 2900 538 
Q 2691 219 2414 64 
Q 2138 -91 1772 -91 
Q 1169 -91 856 284 
Q 544 659 544 1381 
z
M 1991 3584 
L 1991 3584 
z
" transform="scale(0.015625)"/>
     </defs>
     <use xlink:href="#DejaVuSans-36"/>
     <use xlink:href="#DejaVuSans-44" transform="translate(63.484375 0)"/>
     <use xlink:href="#DejaVuSans-50" transform="translate(124.765625 0)"/>
     <use xlink:href="#DejaVuSans-48" transform="translate(222.171875 0)"/>
     <use xlink:href="#DejaVuSans-10" transform="translate(283.703125 0)"/>
     <use xlink:href="#DejaVuSans-49" transform="translate(319.78125 0)"/>
     <use xlink:href="#DejaVuSans-44" transform="translate(354.984375 0)"/>
     <use xlink:href="#DejaVuSans-50" transform="translate(416.265625 0)"/>
     <use xlink:href="#DejaVuSans-4c" transform="translate(513.671875 0)"/>
     <use xlink:href="#DejaVuSans-4f" transform="translate(541.453125 0)"/>
     <use xlink:href="#DejaVuSans-5c" transform="translate(569.234375 0)"/>
     <use xlink:href="#DejaVuSans-3" transform="translate(628.421875 0)"/>
     <use xlink:href="#DejaVuSans-57" transform="translate(660.203125 0)"/>
     <use xlink:href="#DejaVuSans-44" transform="translate(699.40625 0)"/>
     <use xlink:href="#DejaVuSans-55" transform="translate(760.6875 0)"/>
     <use xlink:href="#DejaVuSans-4a" transform="translate(800.046875 0)"/>
     <use xlink:href="#DejaVuSans-48" transform="translate(863.53125 0)"/>
     <use xlink:href="#DejaVuSans-57" transform="translate(925.0625 0)"/>
     <use xlink:href="#DejaVuSans-56" transform="translate(964.265625 0)"/>
     <use xlink:href="#DejaVuSans-3" transform="translate(1016.359375 0)"/>
     <use xlink:href="#DejaVuSans-48" transform="translate(1048.140625 0)"/>
     <use xlink:href="#DejaVuSans-5b" transform="translate(1107.921875 0)"/>
     <use xlink:href="#DejaVuSans-46" transform="translate(1165.359375 0)"/>
     <use xlink:href="#DejaVuSans-4f" transform="translate(1220.34375 0)"/>
     <use xlink:href="#DejaVuSans-58" transform="translate(1248.125 0)"/>
     <use xlink:href="#DejaVuSans-47" transform="translate(1311.5 0)"/>
     <use xlink:href="#DejaVuSans-48" transform="translate(1374.984375 0)"/>
     <use xlink:href="#DejaVuSans-47" transform="translate(1436.515625 0)"/>
    </g>
   </g>
  </g>
 </g>
 <defs>
  <clipPath id="p4014c8d0ec">
   <rect x="44.103906" y="22.318125" width="308.544291" height="235.880614"/>
  </clipPath>
  <clipPath id="pc1cc22489b">
   <rect x="404.703666" y="22.318125" width="308.544291" height="235.880614"/>
  </clipPath>
 </defs>
</svg>
